<svg width="139" height="182" viewBox="0 0 139 182" fill="none" xmlns="http://www.w3.org/2000/svg">
<ellipse cx="69.4689" cy="91.3731" rx="74" ry="24.5" transform="rotate(64.7042 69.4689 91.3731)" fill="#109EA7"/>
<g clip-path="url(#clip0_515_6)">
<path d="M55.5593 30.9781C62.2063 38.2122 79.343 60.1055 94.7125 89.8051" stroke="white" stroke-width="0.787232"/>
<path d="M35.7218 18.4535C38.5706 18.0956 42.2415 19.685 46.5046 23.0252C50.7545 26.355 55.5151 31.3662 60.4901 37.6974C70.4372 50.3561 81.1964 68.2343 90.4018 88.3297C99.6071 108.425 105.507 126.914 107.608 140.558C108.66 147.382 108.758 152.978 107.855 156.955C106.95 160.945 105.055 163.233 102.206 163.591C99.3576 163.949 95.6868 162.36 91.4236 159.019C87.1737 155.689 82.4132 150.678 77.438 144.347C67.491 131.688 56.7318 113.81 47.5265 93.7147C38.3212 73.6193 32.4215 55.1307 30.3198 41.4866C29.2686 34.6626 29.17 29.066 30.0728 25.089C30.9784 21.0996 32.873 18.8113 35.7218 18.4535Z" stroke="white" stroke-width="0.787232"/>
<path d="M48.8935 44.9027L42.2468 48.0833L41.7842 47.1178L48.4309 43.9371L48.8935 44.9027ZM51.926 43.4341C51.8615 43.6395 51.7345 43.7875 51.5452 43.8781C51.3558 43.9687 51.1608 43.9748 50.9602 43.8962C50.7642 43.8271 50.6231 43.7026 50.5369 43.5228C50.4507 43.3429 50.4399 43.1503 50.5044 42.9449C50.5735 42.7489 50.7027 42.6056 50.892 42.515C51.0814 42.4244 51.2741 42.4137 51.4701 42.4827C51.6707 42.5613 51.8141 42.6905 51.9003 42.8704C51.9865 43.0502 51.995 43.2381 51.926 43.4341ZM43.5055 50.7101L53.5607 45.8983L54.9214 48.7381C55.4248 49.7888 55.5944 50.7258 55.4303 51.5491C55.2661 52.3724 54.7437 52.9948 53.8632 53.4161C52.9826 53.8375 52.163 53.8515 51.4042 53.4583C50.6549 53.0605 50.0285 52.3362 49.5251 51.2855L48.6679 49.4964L43.9953 51.7324L43.5055 50.7101ZM53.17 47.342L49.5342 49.0819L50.3642 50.8141C50.7452 51.6093 51.1917 52.1403 51.7037 52.4073C52.2203 52.6838 52.7768 52.6793 53.3733 52.3938C54.5758 51.8184 54.7847 50.7119 54 49.0743L53.17 47.342ZM53.4541 57.2263L53.4677 57.2547C53.9281 57.2439 54.3717 57.3923 54.7985 57.7001C55.2393 58.0128 55.5731 58.4058 55.7998 58.8791C56.1944 59.7026 56.2476 60.4452 55.9594 61.1067C55.6757 61.7778 55.1125 62.3149 54.2698 62.7181L50.1938 64.6687L49.7311 63.7031L53.4095 61.9429C54.1575 61.585 54.6646 61.1736 54.9307 60.7088C55.2108 60.2489 55.1922 59.6877 54.8747 59.0251C54.6071 58.4666 54.1508 58.0973 53.5058 57.9172C52.8748 57.7421 52.1428 57.8538 51.3096 58.2526L47.901 59.8837L47.4384 58.9181L58.1753 53.7802L58.6379 54.7457L53.4541 57.2263ZM59.8947 69.9756C59.554 70.9649 58.8818 71.6996 57.8781 72.1799C56.8745 72.6602 55.8803 72.7229 54.8955 72.3679C53.9152 72.0225 53.1779 71.3339 52.6835 70.3021C52.1937 69.2798 52.1191 68.274 52.4599 67.2847C52.8052 66.305 53.4796 65.575 54.4832 65.0947C55.4869 64.6144 56.4788 64.547 57.4591 64.8925C58.4439 65.2474 59.1812 65.936 59.6711 66.9583C60.1654 67.9901 60.24 68.9959 59.8947 69.9756ZM55.1376 71.3793C55.8712 71.5985 56.6214 71.5246 57.3883 71.1576C58.1552 70.7906 58.6832 70.2528 58.9722 69.5444C59.2613 68.8359 59.2244 68.103 58.8615 67.3457C58.5032 66.5979 57.9573 66.1144 57.2238 65.8953C56.4902 65.6761 55.74 65.75 54.9731 66.117C54.2156 66.4795 53.6924 67.015 53.4033 67.7234C53.1143 68.4319 53.149 69.1601 53.5073 69.9079C53.8701 70.6652 54.4136 71.1556 55.1376 71.3793ZM62.1698 72.6105L62.612 73.5334C62.1568 73.7978 61.7871 73.998 61.5031 74.1339L61.5167 74.1623C61.9816 74.1609 62.4392 74.3143 62.8894 74.6225C63.3442 74.9401 63.685 75.3356 63.9118 75.8089C64.3064 76.6324 64.3596 77.3749 64.0714 78.0365C63.7876 78.7075 63.2245 79.2447 62.3818 79.6479L58.3057 81.5985L57.8431 80.6329L61.5215 78.8727C62.2695 78.5148 62.7765 78.1034 63.0427 77.6386C63.3228 77.1787 63.3041 76.6175 62.9866 75.9549C62.719 75.3964 62.2627 75.0271 61.6178 74.847C60.9868 74.6718 60.2547 74.7836 59.4215 75.1823L56.013 76.8134L55.5504 75.8479L60.7342 73.3673C61.3023 73.0954 61.7808 72.8432 62.1698 72.6105ZM63.5967 82.8028L65.767 87.3322C66.3972 86.9957 66.8181 86.5383 67.0299 85.9599C67.2556 85.3864 67.2074 84.7637 66.8854 84.0916C66.586 83.4668 66.112 83.0362 65.4633 82.7997C64.8286 82.5682 64.2064 82.5692 63.5967 82.8028ZM65.9239 88.4615C65.7346 88.5521 65.5808 88.6198 65.4627 88.6647L62.8229 83.1556C62.1598 83.4962 61.7026 84.0117 61.4514 84.7021C61.2097 85.3879 61.2499 86.0669 61.5719 86.739C61.7942 87.2028 62.1049 87.5719 62.5041 87.8463C62.9128 88.1162 63.3257 88.2736 63.7428 88.3183L63.5217 89.3143C62.2306 89.0245 61.3061 88.2974 60.7482 87.1331C60.2765 86.1487 60.2156 85.1713 60.5654 84.201C60.9152 83.2307 61.5919 82.5054 62.5955 82.0251C63.5897 81.5494 64.5724 81.4748 65.5436 81.8013C66.5242 82.1233 67.2413 82.7576 67.6949 83.7042C68.1757 84.7076 68.2374 85.638 67.8801 86.4955C67.5323 87.3485 66.8802 88.0038 65.9239 88.4615ZM76.9763 94.767L66.9211 99.5787L66.4312 98.5564L75.2224 94.3495L72.8035 93.2729L73.2143 92.3083L76.5408 93.8583L76.9763 94.767ZM74.7167 103.46L75.5972 103.038L75.8081 103.479C76.1437 104.179 76.5604 104.672 77.058 104.958C77.5696 105.248 78.1426 105.241 78.777 104.938C79.3261 104.675 79.6829 104.266 79.8472 103.71C80.0211 103.15 79.9764 102.595 79.7134 102.046C79.2961 101.175 78.597 100.724 77.6161 100.693L77.6556 99.6098C79.0108 99.7176 79.9946 100.41 80.6069 101.688C81.0061 102.521 81.098 103.333 80.8827 104.122C80.6815 104.917 80.1595 105.516 79.3168 105.919C78.7393 106.195 78.1675 106.265 77.6017 106.129C77.0403 106.002 76.5662 105.717 76.1792 105.273L76.1508 105.287C76.3135 105.942 76.263 106.566 75.9994 107.157C75.7359 107.749 75.2774 108.201 74.6241 108.514C73.6962 108.958 72.808 108.999 71.9595 108.637C71.111 108.275 70.4691 107.639 70.0336 106.731C69.6844 106.002 69.5511 105.274 69.6339 104.548C69.7306 103.827 70.0423 103.166 70.569 102.565L71.3867 103.36C70.9949 103.757 70.757 104.22 70.6729 104.749C70.5888 105.278 70.6693 105.798 70.9142 106.309C71.2045 106.915 71.648 107.343 72.2449 107.592C72.8512 107.838 73.481 107.804 74.1343 107.491C74.8444 107.151 75.2402 106.654 75.3217 105.998C75.4127 105.338 75.2813 104.638 74.9276 103.9L74.7167 103.46ZM85.5224 112.603L78.8327 119.993L78.8395 120.007L88.7745 119.39L89.5229 120.952L79.4676 125.764L78.9778 124.741L87.7122 120.562L87.6986 120.533L77.2225 121.078L76.964 120.538L83.9567 112.724L83.9431 112.695L75.2087 116.875L74.7189 115.853L84.7741 111.041L85.5224 112.603ZM87.8338 126.172L81.1872 129.352L80.7245 128.387L87.3712 125.206L87.8338 126.172ZM90.8663 124.703C90.8018 124.908 90.6748 125.056 90.4855 125.147C90.2961 125.238 90.1011 125.244 89.9005 125.165C89.7045 125.096 89.5634 124.972 89.4772 124.792C89.391 124.612 89.3802 124.419 89.4447 124.214C89.5138 124.018 89.643 123.875 89.8323 123.784C90.0217 123.693 90.2144 123.683 90.4105 123.752C90.6111 123.83 90.7544 123.959 90.8406 124.139C90.9268 124.319 90.9354 124.507 90.8663 124.703ZM89.038 128.685L89.4802 129.608C89.025 129.872 88.6553 130.072 88.3713 130.208L88.3849 130.237C88.8498 130.235 89.3074 130.389 89.7577 130.697C90.2125 131.014 90.5533 131.41 90.78 131.883C91.1746 132.707 91.2278 133.449 90.9396 134.111C90.6559 134.782 90.0927 135.319 89.25 135.722L85.174 137.673L84.7113 136.707L88.3897 134.947C89.1377 134.589 89.6448 134.178 89.9109 133.713C90.191 133.253 90.1723 132.692 89.8549 132.029C89.5872 131.471 89.131 131.101 88.486 130.921C87.855 130.746 87.1229 130.858 86.2897 131.257L82.8812 132.888L82.4186 131.922L87.6024 129.442C88.1705 129.17 88.649 128.917 89.038 128.685ZM93.4878 137.972L86.8412 141.152L86.3785 140.187L93.0252 137.006L93.4878 137.972ZM96.5203 136.503C96.4558 136.708 96.3289 136.856 96.1395 136.947C95.9501 137.038 95.7552 137.044 95.5546 136.965C95.3585 136.896 95.2174 136.772 95.1312 136.592C95.045 136.412 95.0342 136.219 95.0987 136.014C95.1678 135.818 95.297 135.675 95.4864 135.584C95.6757 135.493 95.8684 135.483 96.0645 135.552C96.2651 135.63 96.4085 135.759 96.4946 135.939C96.5808 136.119 96.5894 136.307 96.5203 136.503Z" fill="white"/>
</g>
<defs>
<clipPath id="clip0_515_6">
<rect width="177" height="57" fill="white" transform="translate(50) rotate(59.9228)"/>
</clipPath>
</defs>
</svg>
