<svg width="282" height="53" viewBox="0 0 282 53" fill="none" xmlns="http://www.w3.org/2000/svg">
<path d="M254.628 52.5129L29.6371 51.1051C15.6326 51.0174 4.58108 40.2017 4.92058 26.9159C5.26008 13.6301 16.8607 2.95613 30.8652 3.04376L255.856 4.45162C269.86 4.53925 280.912 15.355 280.572 28.6408C280.235 41.854 268.632 52.6006 254.628 52.5129Z" fill="white"/>
<path d="M81.3933 20.5177C81.154 20.8224 80.9147 21.127 80.6811 21.2019C80.4456 21.3534 80.1348 21.4277 79.7488 21.4249C79.3627 21.4222 78.9786 21.3428 78.5964 21.1869C78.2141 21.0309 77.7566 20.7979 77.2972 20.6414C76.8397 20.4083 76.3031 20.2513 75.7664 20.0943C75.1526 19.9367 74.5368 19.8556 73.7647 19.8501C72.6837 19.8423 71.9058 20.0665 71.2785 20.4449C70.7284 20.8239 70.4041 21.4342 70.3868 22.1234C70.3734 22.6594 70.5182 23.0434 70.8946 23.4291C71.273 23.7382 71.7285 24.0478 72.3386 24.3585C72.9505 24.5927 73.6377 24.904 74.4041 25.1393C75.1704 25.3746 75.9368 25.6099 76.7784 25.9223C77.62 26.2347 78.3845 26.5466 79.147 26.935C79.9095 27.3234 80.5928 27.7879 81.1952 28.4049C81.7994 28.9454 82.2453 29.6379 82.6102 30.483C82.9771 31.2515 83.1065 32.2481 83.0776 33.3967C83.043 34.7751 82.7806 35.9986 82.2093 37.2199C81.6399 38.3647 80.92 39.3551 79.8951 40.1902C78.8702 41.0253 77.6194 41.629 76.1389 42.1545C74.6603 42.6034 72.9558 42.8209 71.0255 42.807C70.099 42.8003 69.0971 42.7165 68.1744 42.5567C67.2517 42.3969 66.3309 42.1605 65.4121 41.8475C64.4932 41.5345 63.7307 41.1461 62.9682 40.7577C62.2057 40.3692 61.5996 39.9053 61.0725 39.3654L63.0798 36.3163C63.3211 35.9351 63.5585 35.707 63.9503 35.4801C64.2649 35.2526 64.7301 35.1794 65.2706 35.1833C65.7339 35.1866 66.1953 35.2665 66.5755 35.499C66.9558 35.7315 67.3361 35.964 67.7936 36.1971C68.2511 36.4301 68.7859 36.6638 69.3978 36.8979C70.0097 37.1321 70.7799 37.2142 71.6292 37.2203C72.2469 37.2248 72.7894 37.1521 73.2565 37.0023C73.7236 36.8525 74.0363 36.7016 74.3509 36.4741C74.6655 36.2466 74.8257 36.0179 74.9879 35.7128C75.15 35.4076 75.1577 35.1013 75.1654 34.795C75.1788 34.2589 75.036 33.7984 74.6595 33.4127C74.2831 33.0271 73.8275 32.7174 73.2156 32.4833C72.6036 32.2491 71.9164 31.9378 71.1482 31.7791C70.3818 31.5438 69.6155 31.3085 68.7738 30.9961C68.0094 30.6842 67.1677 30.3718 66.4052 29.9834C65.6427 29.595 64.9613 29.0539 64.359 28.4369C63.7567 27.8198 63.3126 27.0508 62.9497 26.1291C62.5867 25.2074 62.4592 24.1342 62.49 22.909C62.5188 21.7604 62.7793 20.6135 63.2696 19.5447C63.7598 18.476 64.4778 17.5621 65.4255 16.7265C66.3732 15.8908 67.5468 15.2866 68.9481 14.8371C70.3495 14.3877 71.9768 14.1696 73.8299 14.183C74.8336 14.1902 75.8355 14.274 76.7562 14.5104C77.6789 14.6702 78.5978 14.9832 79.3622 15.2951C80.2039 15.6075 80.8892 15.9954 81.5725 16.4598C82.2559 16.9243 82.862 17.3882 83.3118 17.9275L81.3933 20.5177Z" fill="#D8271C"/>
<path d="M83.1422 15.293L89.8233 15.3418C90.4377 15.3462 90.8947 15.5015 91.2729 15.7323C91.6493 16.039 91.9488 16.3451 92.0929 16.7261L94.5469 29.13C94.7544 30.0434 94.9619 30.9567 95.0926 31.8695C95.2233 32.7824 95.3559 33.6192 95.4867 34.532C95.738 33.698 96.0681 32.7885 96.3213 31.8785C96.5746 30.9685 96.9046 30.0591 97.2347 29.1496L101.001 16.7911C101.164 16.4124 101.404 16.0342 101.794 15.8091C102.185 15.508 102.648 15.4354 103.186 15.4393L106.872 15.4662C107.486 15.4707 107.943 15.626 108.321 15.8568C108.698 16.1635 108.997 16.4696 109.141 16.8506L112.133 29.2584C112.34 30.1718 112.625 31.0857 112.832 31.9991C113.04 32.9124 113.249 33.7498 113.457 34.6632C113.633 33.7526 113.808 32.918 114.061 32.008C114.314 31.098 114.568 30.188 114.821 29.278L118.05 16.9156C118.213 16.5369 118.453 16.1587 118.842 15.9336C119.234 15.6325 119.697 15.5599 120.234 15.5638L126.608 15.6103L117.239 43.1254L110.481 43.0761C110.097 43.0733 109.791 42.9951 109.567 42.7655C109.342 42.5359 109.119 42.2303 108.979 41.6974L105.331 27.917C105.115 27.3075 104.977 26.6986 104.839 26.0897C104.7 25.4807 104.562 24.8718 104.501 24.2635C104.332 24.8702 104.24 25.4774 104.071 26.084C103.902 26.6907 103.733 27.2974 103.487 27.9035L99.1511 41.5496C98.821 42.459 98.272 42.911 97.3505 42.9042L91.1301 42.8588L83.1422 15.293Z" fill="#D8271C"/>
<path d="M139.258 15.099C141.107 15.1123 142.795 15.4303 144.324 15.9765C145.852 16.5228 147.141 17.3732 148.193 18.4513C149.245 19.5294 150.135 20.9122 150.714 22.4457C151.29 24.0556 151.554 25.8162 151.504 27.804C151.489 28.4156 151.475 28.9508 151.388 29.3325C151.302 29.7142 151.217 30.0195 151.057 30.2477C150.897 30.476 150.739 30.6278 150.429 30.702C150.196 30.7768 149.886 30.851 149.5 30.8482L133.468 30.7329C133.642 33.0282 134.371 34.7157 135.5 35.7943C136.629 36.873 138.082 37.3422 139.932 37.3555C140.934 37.3627 141.706 37.2918 142.485 36.9916C143.184 36.7672 143.807 36.5423 144.354 36.2403C144.901 35.9384 145.446 35.7129 145.915 35.4869C146.383 35.2609 146.849 35.1113 147.389 35.1152C148.082 35.1202 148.539 35.3529 148.913 35.8143L151.304 38.8137C150.432 39.8015 149.487 40.5594 148.47 41.1638C147.453 41.7682 146.439 42.2197 145.351 42.5942C144.262 42.9687 143.254 43.1909 142.173 43.2596C141.09 43.4047 140.086 43.474 139.161 43.4673C137.235 43.4534 135.392 43.1343 133.712 42.5105C132.032 41.8867 130.515 40.8817 129.313 39.6496C128.033 38.417 127.072 36.8042 126.347 34.9638C125.622 33.1234 125.368 30.9805 125.431 28.4576C125.477 26.6227 125.83 24.8666 126.489 23.189C127.148 21.5115 128.109 20.0656 129.373 18.8512C130.56 17.6363 132.049 16.6529 133.764 15.9006C135.24 15.4524 137.177 15.084 139.258 15.099ZM139.268 20.834C137.649 20.8224 136.404 21.2722 135.456 22.183C134.508 23.0938 133.936 24.3896 133.586 26.0693L143.991 26.1442C144.008 25.4561 143.946 24.8439 143.808 24.2312C143.669 23.6185 143.374 23.0811 143.002 22.5431C142.628 22.0817 142.1 21.6191 141.491 21.3088C140.96 20.9991 140.193 20.8407 139.268 20.834Z" fill="#D8271C"/>
<path d="M168.352 15.6031C170.202 15.6164 171.889 15.9344 173.417 16.4806C174.945 17.0268 176.234 17.8772 177.286 18.9552C178.339 20.0332 179.152 21.4153 179.807 22.9493C180.383 24.5591 180.647 26.3195 180.597 28.3072C180.582 28.9187 180.568 29.4538 180.482 29.8355C180.395 30.2172 180.31 30.5224 180.15 30.7507C179.991 30.9789 179.833 31.1307 179.522 31.2049C179.289 31.2797 178.979 31.3539 178.594 31.3511L162.486 31.2353C162.66 33.5303 163.388 35.2177 164.517 36.2963C165.646 37.3748 167.099 37.844 168.949 37.8574C169.951 37.8646 170.723 37.7937 171.502 37.4934C172.201 37.2691 172.823 37.0442 173.371 36.7423C173.918 36.4404 174.463 36.2149 174.931 35.9889C175.399 35.7629 175.866 35.6133 176.405 35.6172C177.099 35.6222 177.555 35.8548 177.929 36.3163L180.244 39.3149C179.371 40.3026 178.427 41.0604 177.409 41.6648C176.392 42.2691 175.379 42.7206 174.29 43.0951C173.202 43.4695 172.194 43.6917 171.113 43.7604C170.03 43.9055 169.026 43.9747 168.101 43.9681C166.175 43.9542 164.333 43.6351 162.575 43.0108C160.895 42.387 159.379 41.3821 158.176 40.1501C156.897 38.9176 155.935 37.305 155.211 35.4647C154.486 33.6245 154.155 31.4812 154.218 28.9585C154.264 27.1238 154.617 25.3677 155.275 23.6903C155.934 22.0129 156.896 20.5671 158.16 19.3528C159.423 18.1386 160.836 17.1547 162.55 16.4025C164.335 15.9565 166.194 15.5876 168.352 15.6031ZM168.362 21.3377C166.743 21.3261 165.499 21.7759 164.551 22.6866C163.603 23.5973 163.031 24.893 162.68 26.5726L173.085 26.6474C173.102 25.9594 173.04 25.3473 172.902 24.7346C172.763 24.1219 172.468 23.5846 172.096 23.0467C171.722 22.5853 171.194 22.1227 170.585 21.8125C170.054 21.5028 169.287 21.3444 168.362 21.3377Z" fill="#D8271C"/>
<path d="M209.203 38.4671C208.986 37.9308 208.614 37.3934 208.239 37.0087C207.786 36.6235 207.334 36.2383 206.724 36.0047C205.581 35.5381 204.118 35.5276 202.951 35.9776C202.33 36.2023 201.858 36.5808 201.387 36.9594C200.915 37.338 200.594 37.8704 200.349 38.4034C200.105 38.9364 199.936 39.5463 199.918 40.2337C199.901 40.9211 200.04 41.5332 200.257 42.0696C200.473 42.6822 200.846 43.1433 201.222 43.528C201.672 43.9895 202.126 44.2984 202.736 44.532C203.347 44.7655 203.959 44.9227 204.652 44.9277C205.344 44.9327 205.964 44.7844 206.509 44.5591C207.054 44.3339 207.6 44.0322 208.074 43.5773C208.545 43.1987 208.867 42.6663 209.113 42.0569C209.359 41.4476 209.528 40.8376 209.544 40.2266C209.559 39.6156 209.421 39.0034 209.203 38.4671Z" fill="#D8271C"/>
<path d="M248.827 45.5428L241.205 45.4879L231.046 17.6924L237.975 17.7423C238.591 17.7467 239.049 17.9028 239.428 18.1346C239.806 18.4428 240.106 18.7504 240.25 19.1333L243.787 31.6071C244.07 32.602 244.353 33.5968 244.636 34.5917C244.842 35.586 245.05 36.5039 245.256 37.4982C245.512 36.5072 245.766 35.5926 246.022 34.6016C246.278 33.6107 246.688 32.6208 247.021 31.6304L251.337 19.2132C251.501 18.8325 251.741 18.4524 252.209 18.2266C252.601 17.924 253.065 17.851 253.604 17.8548L260.225 17.9025L248.827 45.5428Z" fill="#D8271C"/>
<path d="M196.188 38.0793C196.04 37.7709 195.811 37.6156 195.659 37.4609C195.43 37.3056 195.121 37.2265 194.81 37.2242C194.577 37.2225 194.342 37.2976 194.185 37.3733C194.027 37.449 193.87 37.5246 193.713 37.6003C193.633 37.6765 193.478 37.6754 193.32 37.751C193.163 37.8267 193.008 37.8255 192.775 37.8238C192.386 37.821 192.155 37.7425 192.007 37.4341C191.782 37.1252 191.712 36.8175 191.725 36.2799L192.026 24.2994L198.319 24.3455L198.475 18.1249L192.182 18.0788L192.357 11.0901L185.519 11.04L185.517 11.1168C184.424 11.3393 183.622 12.3319 183.595 13.4071L183.012 36.6769C182.983 37.8289 183.111 38.9052 183.475 39.9064C183.838 40.9076 184.283 41.7558 184.965 42.4521C185.647 43.1485 186.488 43.6923 187.489 44.0837C188.489 44.4751 189.573 44.6367 190.894 44.6463C192.215 44.656 193.617 44.5127 194.87 44.1378C196.201 43.7635 197.381 43.1576 198.409 42.4738L198.805 42.1695L196.188 38.0793Z" fill="#D8271C"/>
<path d="M228.105 38.6408C227.957 38.3325 227.728 38.1772 227.576 38.0224C227.347 37.8671 227.038 37.7881 226.728 37.7858C226.494 37.7841 226.259 37.8592 226.102 37.9348C225.945 38.0105 225.787 38.0861 225.63 38.1618C225.551 38.238 225.395 38.2369 225.238 38.3126C225.081 38.3882 224.925 38.3871 224.692 38.3854C224.304 38.3825 224.072 38.304 223.925 37.9957C223.699 37.6868 223.629 37.379 223.643 36.8414L223.943 24.8609L230.237 24.907L230.392 18.6864L224.099 18.6403L224.274 11.6517L217.437 11.6016L217.435 11.6784C216.341 11.9008 215.539 12.8935 215.512 13.9686L214.929 37.2385C214.9 38.3904 215.029 39.4667 215.392 40.468C215.756 41.4692 216.201 42.3174 216.883 43.0137C217.565 43.71 218.406 44.2538 219.406 44.6452C220.407 45.0366 221.491 45.1982 222.811 45.2079C224.132 45.2176 225.535 45.0742 226.787 44.6993C228.118 44.325 229.299 43.7192 230.326 43.0354L230.722 42.731L228.105 38.6408Z" fill="#D8271C"/>
<path d="M28.5565 1.68112C14.3298 2.00195 2.38777 13.1402 1.94375 26.607C1.49972 40.0738 12.7245 50.6896 26.9512 50.3687C41.1778 50.0479 53.1199 38.9096 53.5639 25.4429C54.0857 11.9743 42.8609 1.35853 28.5565 1.68112ZM37.0343 24.9284L22.8795 32.4935C21.6939 33.1118 20.783 32.4669 20.8293 31.061L21.113 17.7457C21.1593 16.3398 22.1166 15.5789 23.2632 16.1445L37.0273 22.7843C38.1739 23.35 38.2199 24.3101 37.0343 24.9284Z" fill="#2D3945"/>
<path opacity="0.5" d="M30.8705 1.2127C16.4834 1.5376 4.45431 12.8353 4.00736 26.3874C3.56042 39.9395 14.8617 50.7103 29.2488 50.3854C43.6359 50.0605 54.5762 38.7874 55.0232 25.2353C55.5479 11.6814 45.2576 0.887801 30.8705 1.2127ZM39.4211 24.6996L25.1835 32.2732C23.9975 32.892 23.0862 32.2465 23.0549 30.8412L23.3414 17.4407C23.3878 16.0337 24.3454 15.2721 25.4924 15.8382L39.4142 22.5538C40.5611 23.1199 40.6072 24.0809 39.4211 24.6996Z" fill="#2D3945"/>
<path d="M53.3822 19.4224C52.5866 15.3155 47.9605 7.3906 44.8965 6.20708C41.9853 5.09379 40.4982 3.13839 39.3411 2.94334C38.2615 2.74656 33.2058 0.797436 31.4081 1.20598C29.6105 1.61453 27.0681 1.08223 25.5882 1.26269C24.1059 1.51686 16.2118 3.31412 11.6605 7.24618C7.34947 10.9519 6.04182 12.9699 6.04182 12.9699C6.04182 12.9699 -2.2845 27.8876 3.55722 29.5245C5.09528 29.932 4.83326 30.8217 4.85991 32.3679C4.78465 34.6529 4.07625 34.9634 5.81808 36.2502C7.5599 37.537 9.5056 34.9891 11.0097 36.4285C12.4361 37.8697 9.3793 41.179 13.4986 43.2964C17.6203 45.3401 17.1837 39.7521 20.1021 40.6442C23.0982 41.5346 20.3276 45.5741 23.7361 45.7187C27.1422 45.9371 26.0433 41.616 28.0521 41.8656C30.0608 42.1152 28.7943 45.2371 33.0107 44.4061C37.2271 43.5751 34.544 40.2471 36.8172 39.5332C39.168 38.8177 39.8035 43.0755 44.4421 38.8469C49.0806 34.6182 44.8085 34.7876 45.8711 33.1433C46.8561 31.5008 47.773 34.2792 49.2166 30.4904C50.7378 26.6999 49.4495 28.1282 49.3525 26.3627C49.2531 24.6708 54.1779 23.5293 53.3822 19.4224Z" fill="white"/>
<path d="M44.7447 32.8254L41.5734 33.0645C41.264 33.0878 41.0383 32.9211 41.0467 32.6756L41.07 32.0003C41.0785 31.7547 41.3168 31.5531 41.6262 31.5297L44.7976 31.2907C45.107 31.2674 45.3327 31.4341 45.3242 31.6796L45.301 32.3549C45.2173 32.5449 44.9768 32.808 44.7447 32.8254Z" fill="#D8271C"/>
<path d="M45.6136 23.634C45.5348 23.6418 45.4561 23.6495 45.3011 23.5948L44.6075 23.2437C44.4526 23.1891 44.3789 23.0566 44.3815 22.9864C44.3867 22.8462 44.3919 22.706 44.4733 22.6281L46.221 19.9417C46.3863 19.7159 46.7066 19.5448 46.9378 19.6618L47.6313 20.0129C47.7863 20.0676 47.8599 20.2001 47.8573 20.2702C47.8522 20.4104 47.847 20.5507 47.7656 20.6285L46.0179 23.3149C46.0102 23.5253 45.7712 23.6186 45.6136 23.634Z" fill="#D8271C"/>
<path d="M41.2743 17.7691C41.1955 17.7769 41.1167 17.7846 41.0404 17.7222L40.3466 17.3706C40.1153 17.2534 40.0469 16.9803 40.2149 16.6839L41.9636 13.9934C42.1291 13.7673 42.4496 13.5959 42.6809 13.7131L43.3747 14.0646C43.5298 14.1194 43.6034 14.2521 43.6008 14.3223C43.5956 14.4627 43.5904 14.6031 43.509 14.6811L41.7576 17.4418C41.5948 17.5977 41.432 17.7537 41.2743 17.7691Z" fill="#F6BF48"/>
<path d="M37.2158 11.0025C37.1366 11.0104 37.0574 11.0182 36.9809 10.955C36.8252 10.8997 36.7486 10.8365 36.6747 10.7023L35.672 7.96976C35.5981 7.8355 35.6034 7.69336 35.6853 7.61441C35.7698 7.46439 35.8516 7.38544 36.0126 7.29862L36.8152 6.93555C37.1347 6.83297 37.4488 6.87253 37.5174 7.14893L38.5201 9.88145C38.5887 10.1578 38.4989 10.45 38.1795 10.5526L37.3769 10.9157C37.3742 10.9867 37.295 10.9946 37.2158 11.0025Z" fill="#D8271C"/>
<path d="M32.8969 11.9056C32.817 11.9761 32.817 11.9761 32.7371 12.0467C32.5796 12.1238 32.502 12.1303 32.3468 12.1432L29.1891 11.7041C29.0339 11.717 28.9608 11.5954 28.8854 11.5377C28.8123 11.4161 28.8168 11.2879 28.8191 11.2238L29.0744 10.5634C29.1611 10.3006 29.476 10.1465 29.7067 10.1911L32.8643 10.6302C33.0195 10.6173 33.0927 10.739 33.168 10.7966C33.2411 10.9183 33.2366 11.0465 33.2344 11.1105L32.979 11.7709C32.9768 11.835 32.9745 11.8991 32.8969 11.9056Z" fill="#20BEC6"/>
<path d="M25.2871 6.53212C25.0542 6.55173 24.8259 6.44264 24.7573 6.19178L24.6269 5.49701C24.6315 5.36832 24.636 5.23962 24.7159 5.16873C24.7981 5.03349 24.9556 4.95607 25.0332 4.94953L28.1588 4.1089C28.314 4.09583 28.4693 4.08275 28.5447 4.14056C28.6977 4.19184 28.7708 4.314 28.7685 4.37835L28.8988 5.07312C28.9674 5.32398 28.7255 5.60099 28.4903 5.68495L25.3647 6.52558L25.2871 6.53212Z" fill="#F6BF48"/>
<path d="M33.833 37.8829C33.7542 37.8907 33.6754 37.8984 33.5992 37.836L32.9053 37.4844C32.674 37.3672 32.6056 37.094 32.7736 36.7977L34.5224 34.1072C34.6878 33.881 35.0083 33.7096 35.2396 33.8268L35.9334 34.1784C36.0885 34.2331 36.1621 34.3658 36.1595 34.436C36.1543 34.5765 36.1491 34.7169 36.0677 34.7949L34.319 37.4854C34.1509 37.7817 33.9907 37.8674 33.833 37.8829Z" fill="#20BEC6"/>
<path d="M11.4685 17.299L8.70698 16.3573C8.47804 16.2457 8.33173 15.9946 8.49461 15.7819L8.90772 15.0844C9.07297 14.8055 9.3869 14.7113 9.61584 14.8229L12.3773 15.7646C12.6063 15.8762 12.7526 16.1273 12.5897 16.34L12.1766 17.0375C12.0137 17.2502 11.6974 17.4106 11.4685 17.299Z" fill="#F6BF48"/>
<path d="M11.4897 31.3217C11.4141 31.2621 11.3386 31.2026 11.341 31.1361L10.9751 30.5058C10.8264 30.3203 10.9942 29.9735 11.2327 29.8193L14.164 28.2283C14.3223 28.1477 14.4781 28.1336 14.5561 28.1266C14.7096 28.1791 14.7851 28.2386 14.8607 28.2981L15.2265 28.9284C15.2997 29.0544 15.2949 29.1875 15.2146 29.2611C15.1319 29.4012 15.0516 29.4747 14.9713 29.5483L12.04 31.1393C11.8818 31.22 11.7259 31.234 11.6479 31.241C11.5676 31.3146 11.4897 31.3217 11.4897 31.3217Z" fill="#20BEC6"/>
<path d="M15.4078 12.2385C15.329 12.2462 15.2501 12.254 15.0951 12.1992L14.4013 11.8476C14.17 11.7305 14.1015 11.4573 14.2696 11.161L16.0183 8.47047C16.1837 8.24433 16.5042 8.07291 16.7355 8.19011L17.4293 8.54169C17.5844 8.59642 17.658 8.72911 17.6554 8.79933C17.6502 8.93976 17.645 9.0802 17.5636 9.15816L15.8149 11.8487C15.7309 11.9968 15.6495 12.0748 15.4918 12.0903C15.4866 12.2307 15.4078 12.2385 15.4078 12.2385Z" fill="#D8271C"/>
<path d="M13.2609 24.6495C13.0996 24.7996 12.787 24.8288 12.638 24.64L10.2029 23.0436C9.97573 22.8621 9.98553 22.591 10.1492 22.3731L10.716 21.7799C10.7966 21.7048 10.9554 21.6225 11.1117 21.6079C11.268 21.5933 11.4243 21.5787 11.4976 21.707L13.9327 23.3035C14.0084 23.3639 14.0817 23.4922 14.155 23.6205C14.1501 23.756 14.1452 23.8915 14.0645 23.9666L13.4978 24.5598C13.339 24.6422 13.339 24.6422 13.2609 24.6495Z" fill="#D8271C"/>
<path d="M15.885 38.8434C15.6467 38.8672 15.4137 38.7479 15.3424 38.541L14.5787 35.6927C14.51 35.4142 14.6797 35.1119 15.0001 35.0085L15.8026 34.7143C15.9614 34.6984 16.1203 34.6825 16.1971 34.7462C16.3533 34.8019 16.43 34.8655 16.4246 35.0087L17.1883 37.8571C17.1829 38.0003 17.1775 38.1435 17.0954 38.223C17.0106 38.3742 16.9285 38.4537 16.7696 38.4696L15.9671 38.7638C16.0439 38.8275 15.9644 38.8355 15.885 38.8434Z" fill="#D8271C"/>
<path d="M26.1583 40.6573C25.9199 40.6811 25.687 40.5617 25.6156 40.3549L24.9314 37.4986C24.8628 37.2201 25.0324 36.9178 25.3528 36.8144L26.1553 36.5202C26.3141 36.5043 26.473 36.4884 26.5498 36.5521C26.706 36.6078 26.78 36.7431 26.7773 36.8147L27.541 39.663C27.5356 39.8062 27.5302 39.9494 27.4481 40.0289C27.3633 40.1801 27.2811 40.2596 27.1223 40.2755L26.3198 40.5698C26.2377 40.6493 26.2377 40.6493 26.1583 40.6573Z" fill="#F6BF48"/>
<path d="M39.7485 21.9978L22.0047 14.3985C20.5456 13.7642 19.2647 14.6927 19.2009 16.4834L18.7699 32.9492C18.7061 34.74 19.9282 35.4589 21.4384 34.6607L39.6515 24.7197C41.2424 23.8456 41.2076 22.6322 39.7485 21.9978Z" fill="#20BEC6"/>
<path d="M39.61 21.6256L21.9879 14.3156C20.5387 13.7054 19.269 14.5945 19.2085 16.312L19.1334 18.4417L36.7604 25.6142L39.4429 24.1715C41.0955 23.3996 41.0591 22.2357 39.61 21.6256Z" fill="#2D3945"/>
</svg>
