<svg width="1920" height="572" viewBox="0 0 1920 572" fill="none" xmlns="http://www.w3.org/2000/svg">
<g filter="url(#filter0_d_4_28)">
<path d="M0 569H1920V195.505C1910.97 193.03 1902.6 191.569 1895.09 191.569C1873.79 191.569 1840.61 169.674 1803.06 144.902C1754.17 112.64 1697.88 75.5005 1650.84 75.5005C1617.98 75.5005 1592.13 68.9396 1566.15 62.3468C1530.98 53.4208 1495.57 44.4364 1442.25 51.5971C1395.79 57.8364 1344.74 86.7414 1296.55 114.027C1248.59 141.187 1203.45 166.742 1168.5 166.742C1147.32 166.742 1117.8 156.521 1084.61 145.03C1033.9 127.473 974.63 106.95 923.447 115.377C882.4 122.136 841.888 148.346 802.91 173.563C761.472 200.372 721.768 226.059 685 226.059C648.97 226.059 609.172 246.421 570.839 266.034C535.229 284.253 500.884 301.825 472 301.825C447.306 301.825 419.744 287.971 387.596 271.811C342.614 249.2 288.651 222.075 221 222.075C145.359 222.075 84.9837 260.746 39.5234 289.865C24.7854 299.305 11.6149 307.741 0 313.529V569Z" fill="white"/>
</g>
<g filter="url(#filter1_d_4_28)">
<path d="M0 450.014V572H1920V292.944C1875.27 280.441 1826.29 261.69 1775.61 242.284C1686.52 208.177 1592.14 172.045 1506.25 164.246C1407.67 155.296 1342.22 166.526 1277.19 177.683C1229.16 185.924 1181.37 194.126 1120.62 194.126C1033.66 194.126 929.597 240.55 839.203 280.878C769.796 311.842 708.446 339.212 669.079 339.212C627.562 339.212 571.871 355.536 511.505 373.231C440.08 394.168 362.111 417.023 293.34 417.023C191.824 417.023 55.4819 439.017 0 450.014Z" fill="white"/>
</g>
<defs>
<filter id="filter0_d_4_28" x="-31" y="0" width="1982" height="582" filterUnits="userSpaceOnUse" color-interpolation-filters="sRGB">
<feFlood flood-opacity="0" result="BackgroundImageFix"/>
<feColorMatrix in="SourceAlpha" type="matrix" values="0 0 0 0 0 0 0 0 0 0 0 0 0 0 0 0 0 0 127 0" result="hardAlpha"/>
<feOffset dy="-18"/>
<feGaussianBlur stdDeviation="15.5"/>
<feComposite in2="hardAlpha" operator="out"/>
<feColorMatrix type="matrix" values="0 0 0 0 0 0 0 0 0 0 0 0 0 0 0 0 0 0 0.05 0"/>
<feBlend mode="normal" in2="BackgroundImageFix" result="effect1_dropShadow_4_28"/>
<feBlend mode="normal" in="SourceGraphic" in2="effect1_dropShadow_4_28" result="shape"/>
</filter>
<filter id="filter1_d_4_28" x="-31" y="112" width="1982" height="473" filterUnits="userSpaceOnUse" color-interpolation-filters="sRGB">
<feFlood flood-opacity="0" result="BackgroundImageFix"/>
<feColorMatrix in="SourceAlpha" type="matrix" values="0 0 0 0 0 0 0 0 0 0 0 0 0 0 0 0 0 0 127 0" result="hardAlpha"/>
<feOffset dy="-18"/>
<feGaussianBlur stdDeviation="15.5"/>
<feComposite in2="hardAlpha" operator="out"/>
<feColorMatrix type="matrix" values="0 0 0 0 0 0 0 0 0 0 0 0 0 0 0 0 0 0 0.1 0"/>
<feBlend mode="normal" in2="BackgroundImageFix" result="effect1_dropShadow_4_28"/>
<feBlend mode="normal" in="SourceGraphic" in2="effect1_dropShadow_4_28" result="shape"/>
</filter>
</defs>
</svg>
